<svg width="242" height="400" viewBox="0 0 242 400" fill="none" xmlns="http://www.w3.org/2000/svg">
<path d="M5.46729 283.162V233.774C5.46729 232.123 6.27395 231.207 7.92385 231.06C14.707 230.51 20.3901 230.217 24.9 230.217C33.8463 230.217 41.2895 232.71 46.6057 237.293C51.8856 241.877 54.9659 249.173 54.9659 258.156C54.9659 263.729 53.7922 268.679 51.4826 273.005C49.1357 277.332 45.7993 280.705 41.4361 283.125C37.0729 285.582 32.0497 286.792 26.3299 286.792C22.1867 286.792 16.1003 286.498 8.03386 285.948C6.31057 285.802 5.46729 284.885 5.46729 283.162ZM16.9436 242.17V275.059C20.0235 275.352 23.2134 275.499 26.4766 275.499C31.4264 275.499 35.313 273.922 38.2095 270.769C41.0694 267.652 42.4994 263.399 42.4994 258.01C42.4994 252.95 41.0694 248.916 38.1729 245.947C35.2763 242.977 31.3164 241.51 26.3299 241.51C23.58 241.51 20.4634 241.73 16.9436 242.17ZM99.1476 267.762L106.957 282.428C107.251 282.942 107.397 283.419 107.397 283.858C107.397 284.848 106.591 285.545 105.161 285.582C104.684 285.619 103.584 285.692 101.788 285.839C99.9909 286.022 98.8909 286.095 98.4874 286.095C97.351 286.095 96.5076 285.509 95.921 284.372L89.3212 271.906C87.0111 272.346 83.7482 272.566 79.4947 272.566C77.4782 272.566 75.7183 272.529 74.1416 272.419V283.309C74.1416 284.958 73.1884 285.948 71.5385 285.948H65.3053C63.6554 285.948 62.6653 284.958 62.6653 283.309V234.434C62.6653 232.784 63.4719 231.867 65.1222 231.647C65.4884 231.611 66.4054 231.501 67.9084 231.317C69.3752 231.134 70.3653 231.024 70.9151 230.95C71.4649 230.913 72.345 230.804 73.6282 230.694C74.875 230.584 75.8651 230.474 76.6348 230.437C77.3682 230.4 78.2483 230.327 79.3116 230.291C80.338 230.254 81.3281 230.217 82.2446 230.217C89.651 230.144 96.9475 232.6 101.788 237.623C104.977 240.923 106.957 245.91 106.957 251.776C106.701 258.853 104.097 264.169 99.1476 267.762ZM74.1416 241.95V261.529C78.2847 261.786 81.2913 261.933 83.1616 261.933C88.7345 261.933 94.711 259.293 94.711 251.776C94.711 248.733 93.5378 246.277 91.2277 244.407C88.9177 242.537 85.8379 241.583 82.0247 241.583C80.0082 241.583 77.405 241.693 74.1416 241.95ZM127.82 233.847V283.309C127.82 284.958 126.867 285.948 125.217 285.948H118.984C117.334 285.948 116.344 284.958 116.344 283.309V233.847C116.344 232.197 117.334 231.207 118.984 231.207H125.217C126.867 231.207 127.82 232.197 127.82 233.847ZM145.639 232.344L171.415 265.232V233.92C171.415 232.27 172.405 231.28 174.055 231.28H180.508C182.158 231.28 183.111 232.27 183.111 233.92V282.942C183.111 284.555 182.305 285.289 180.581 285.582C178.785 285.875 177.648 286.022 177.208 286.022C176.182 286.022 175.338 285.582 174.642 284.738L148.646 253.976V283.309C148.646 284.958 147.693 285.948 146.042 285.948H139.516C137.866 285.948 136.876 284.958 136.876 283.309V234.214C136.876 232.49 137.683 231.574 139.333 231.427C139.736 231.391 140.359 231.28 141.203 231.17C142.046 231.06 142.67 230.987 143.036 230.987C144.1 230.987 144.979 231.427 145.639 232.344ZM218.677 253.06L238.806 282.355C239.21 282.979 239.393 283.528 239.393 283.932C239.393 284.958 238.586 285.582 237.156 285.582C236.643 285.582 235.323 285.655 233.16 285.839C230.997 286.022 229.897 286.095 229.86 286.095C228.687 286.095 227.77 285.582 227.073 284.592L211.087 261.456L203.644 269.669V283.309C203.644 284.958 202.691 285.948 201.041 285.948H194.808C193.158 285.948 192.168 284.958 192.168 283.309V233.847C192.168 232.197 193.158 231.207 194.808 231.207H201.041C202.691 231.207 203.644 232.197 203.644 233.847V255.37L223.48 232.27C224.213 231.354 225.093 230.913 226.12 230.913C226.45 230.913 227.513 231.024 229.383 231.28C231.217 231.537 232.647 231.647 233.673 231.647C235.799 231.647 236.863 232.894 235.177 234.8L218.677 253.06Z" fill="#F8F8F8"/>
<path d="M71.3186 317.327V356.963C71.3186 363.306 70.4753 367.632 68.2752 371.189C66.0387 374.746 62.9589 377.129 57.789 379.659C57.2392 379.915 56.7621 380.025 56.359 380.025C55.4789 380.025 54.7823 379.512 54.2689 378.449L52.3991 374.819C52.1424 374.269 51.9956 373.792 51.9956 373.315C51.9956 372.472 52.4359 371.739 53.3524 371.153C55.9192 369.356 57.6422 367.632 58.5223 365.983C59.3657 364.333 59.8055 362.023 59.8055 358.979V317.327C59.8055 315.678 60.7956 314.687 62.4455 314.687H68.6786C70.3285 314.687 71.3186 315.678 71.3186 317.327ZM79.0549 342.003C78.835 325.54 91.1909 313.441 108.057 313.697C124.777 313.441 137.096 325.54 136.876 342.003C137.133 358.429 124.886 370.492 107.984 370.272C99.5874 370.272 92.1442 367.339 87.1211 362.389C82.0983 357.439 79.0549 350.216 79.0549 342.003ZM95.8111 329.573C92.8045 332.617 91.3009 336.76 91.3009 342.003C91.3009 347.247 92.8045 351.353 95.7743 354.396C98.7441 357.439 102.814 358.979 107.984 358.979C113.117 358.979 117.187 357.439 120.157 354.396C123.127 351.353 124.63 347.247 124.63 342.003C124.63 336.797 123.127 332.654 120.157 329.573C117.15 326.53 113.117 324.991 108.057 324.991C102.888 324.991 98.8177 326.53 95.8111 329.573ZM162.065 335.88L174.165 316.044C174.752 314.981 175.632 314.468 176.805 314.468C177.392 314.468 178.198 314.541 179.188 314.687C181.571 314.944 183.221 315.054 184.065 315.054C185.494 315.054 186.338 315.751 186.338 316.778C186.338 317.034 186.155 317.547 185.788 318.281L167.859 347.87V366.789C167.859 368.439 166.869 369.429 165.219 369.429H158.985C157.336 369.429 156.382 368.439 156.382 366.789V347.943L138.343 318.281C138.049 317.767 137.903 317.254 137.903 316.778C137.903 315.751 138.636 315.201 140.066 315.127C140.983 315.091 142.816 314.944 145.566 314.687C146.703 314.541 147.399 314.468 147.583 314.468C148.756 314.468 149.636 314.981 150.222 316.044L162.065 335.88Z" fill="#F8F8F8"/>
<path d="M156.263 125.842C156.263 111.031 156.263 96.2201 156.263 81.4135C156.263 79.7529 156.15 78.191 154.952 76.8042C153.848 75.5295 152.528 75.0942 150.98 75.1705C143.287 75.5475 135.594 75.9379 127.902 76.3733C119.208 76.8625 110.514 77.4056 101.821 77.9262C89.0565 78.6847 76.2966 79.4208 63.5367 80.2197C61.4811 80.3498 59.4614 80.4351 57.6841 79.2906C55.2515 77.7242 54.0576 75.3904 54.4122 72.5134C54.7668 69.632 56.2838 67.4777 59.2011 66.6384C60.4039 66.2928 61.6741 66.0953 62.9263 66.019C73.2267 65.4221 83.5315 64.888 93.8319 64.309C101.668 63.8647 109.505 63.3934 117.341 62.9042C122.897 62.5542 128.454 62.1143 134.01 61.7867C140.765 61.3917 147.529 61.0865 154.283 60.723C157.043 60.5749 159.804 60.3101 162.564 60.2023C165.567 60.0857 168.098 61.0327 169.592 63.8423C169.893 64.4033 170.109 65.099 170.091 65.7273C169.974 70.2469 169.803 74.7665 169.615 79.2861C169.278 87.2437 168.942 95.2012 168.556 103.154C168.192 110.659 167.757 118.163 167.375 125.663C167.016 132.723 166.72 139.782 166.343 146.838C165.975 153.669 165.513 160.495 165.149 167.326C164.768 174.494 164.444 181.666 164.117 188.838C164.041 190.521 163.493 192.079 162.232 193.125C160.67 194.422 158.969 195.62 157.165 196.554C152.56 198.937 147.551 200.153 142.502 201.217C130.137 203.811 117.637 204.718 105.048 203.824C100.596 203.506 96.1209 202.779 91.7943 201.697C87.8806 200.719 83.931 199.372 81.274 195.952C80.6546 195.153 80.1295 194.161 79.923 193.183C79.1376 189.422 78.5317 185.62 77.7956 181.846C77.3109 179.355 76.687 176.895 76.1799 174.409C75.2239 169.692 74.3397 164.957 73.3658 160.24C72.4996 156.043 71.5256 151.865 70.6549 147.668C70.0715 144.854 69.6002 142.018 69.0526 139.194C68.2717 135.169 67.4683 131.143 66.6649 127.117C65.9782 123.679 65.2871 120.241 64.5779 116.812C63.6848 112.503 62.7557 108.199 61.8626 103.895C61.5753 102.504 61.3644 101.099 61.0816 99.7074C60.6149 97.4049 60.1481 95.1025 59.6275 92.8135C58.9138 89.6628 60.7899 85.7132 63.8957 84.645C67.3651 83.4557 70.4081 84.1603 72.513 87.2347C73.0022 87.9528 73.3748 88.8235 73.5363 89.6763C74.5237 94.8826 75.4842 100.098 76.3594 105.327C77.1852 110.259 77.9123 115.21 78.6394 120.16C79.3844 125.223 80.0711 130.29 80.7892 135.353C81.5522 140.711 82.3107 146.075 83.0917 151.429C83.5585 154.643 84.0297 157.856 84.5593 161.061C85.0665 164.113 85.6544 167.156 86.211 170.203C86.6149 172.407 87.0099 174.611 87.4362 176.81C87.9524 179.507 89.9406 180.8 92.2206 181.873C95.1739 183.264 98.347 183.668 101.507 184.215C108.831 185.481 116.205 185.248 123.544 184.732C128.669 184.368 133.795 183.547 138.83 182.506C143.009 181.639 147.178 180.472 150.926 178.278C153.071 177.021 155.118 175.594 155.715 172.955C155.917 172.052 155.957 171.101 155.957 170.172C155.971 155.401 156.258 140.94 156.258 126.169C156.258 125.945 156.263 126.017 156.263 125.866V125.842Z" fill="#F8F8F8"/>
<path d="M137.376 142.233C137.479 143.247 137.575 144.262 137.686 145.275C137.758 145.929 137.932 146.029 138.431 145.62C139.445 144.793 140.488 143.981 141.392 143.045C142.657 141.733 143.93 140.393 144.981 138.911C146.756 136.41 148.083 133.672 148.662 130.616C148.804 129.866 149.346 129.456 149.927 129.574C150.465 129.683 150.866 130.271 150.692 130.968C150.331 132.41 149.963 133.865 149.429 135.247C147.866 139.286 145.415 142.741 142.314 145.757C139.571 148.427 136.482 150.581 133.037 152.246C130.587 153.433 128.057 154.334 125.408 154.992C120.197 156.289 114.984 156.342 109.723 155.407C107.46 155.004 105.299 154.306 103.161 153.489C99.9066 152.245 96.9139 150.55 94.1994 148.366C90.9553 145.755 88.2526 142.695 86.3967 138.936C86.1485 138.431 85.8998 137.924 85.6988 137.398C85.4869 136.852 85.71 136.411 86.1929 136.138C86.6893 135.86 87.1969 136.046 87.5075 136.572C88.3585 138.004 89.1251 139.494 90.0734 140.859C92.1833 143.894 94.9413 146.239 98.1324 148.085C101.834 150.226 105.804 151.591 110.027 152.261C113.512 152.812 116.995 152.867 120.508 152.56C122.305 152.401 123.909 150.386 123.722 148.697C123.347 145.31 122.744 141.978 121.801 138.706C121.226 136.71 121.328 134.768 122.317 132.916C124.226 129.347 128.669 128.232 132.093 130.03C134.188 131.131 135.297 132.919 135.88 135.072C136.516 137.423 136.998 139.816 137.549 142.191L137.378 142.231L137.376 142.233ZM125.175 151.688C125.535 151.627 125.757 151.612 125.964 151.547C127.042 151.213 128.107 150.834 129.194 150.537C129.898 150.345 130.113 149.96 130.06 149.255C129.779 145.451 129.285 141.69 127.977 138.078C127.783 137.541 128.012 136.944 128.466 136.742C129.065 136.475 129.641 136.633 129.837 137.271C130.411 139.119 131.026 140.969 131.394 142.863C131.761 144.746 131.852 146.682 132.066 148.592C132.086 148.783 132.124 148.974 132.177 149.331C132.914 148.95 133.57 148.657 134.174 148.287C135.221 147.644 135.73 146.699 135.63 145.447C135.368 142.239 135.007 139.046 134.02 135.959C133.602 134.652 133.051 133.446 131.992 132.503C130.529 131.201 127.872 130.893 126.215 131.917C124.045 133.256 123.099 135.388 123.742 137.83C124.529 140.832 125.268 143.843 125.575 146.94C125.73 148.509 126.063 150.084 125.177 151.685L125.175 151.688Z" fill="#F8F8F8"/>
<path d="M88.0648 135.717C87.8009 135.673 87.5343 135.632 87.2695 135.58C86.4423 135.424 85.7521 135.62 85.2485 136.332C85.1314 136.497 84.9882 136.646 84.8679 136.808C84.5174 137.281 84.0632 137.382 83.5623 137.106C83.0179 136.803 82.9268 136.285 83.1323 135.756C83.8289 133.936 86.6784 132.837 88.4014 133.713C88.8655 133.95 89.1173 134.356 89.0208 134.882C88.9293 135.38 88.598 135.665 88.0648 135.717Z" fill="#F8F8F8"/>
<path d="M148.994 127.071C150.677 127.022 151.972 127.316 152.883 128.562C153.255 129.07 153.244 129.771 152.856 130.108C152.471 130.44 151.791 130.441 151.385 129.996C150.499 129.026 149.536 128.925 148.395 129.498C147.831 129.779 147.387 129.557 147.114 128.998C146.897 128.556 147.11 127.81 147.57 127.604C148.098 127.368 148.657 127.196 148.997 127.074L148.994 127.071Z" fill="#F8F8F8"/>
<path d="M132.47 128.11C132.449 127.719 132.405 127.573 132.444 127.457C132.887 126.112 133.311 124.76 133.807 123.433C134.047 122.786 134.73 122.467 135.397 122.55C136.006 122.624 136.58 123.139 136.721 123.745C136.899 124.503 136.718 125.027 136.075 125.442C135.319 125.932 134.524 126.362 133.79 126.877C133.351 127.184 132.996 127.611 132.47 128.11Z" fill="#F8F8F8"/>
<path d="M133.687 128.893C133.952 128.117 136.157 126.674 136.843 126.762C137.375 126.831 137.659 127.184 137.724 127.661C137.79 128.146 137.695 128.628 137.145 128.835C136.934 128.914 136.71 128.988 136.492 128.994C135.704 129.012 134.913 129 134.125 128.99C133.997 128.989 133.869 128.934 133.689 128.892L133.687 128.893Z" fill="#F8F8F8"/>
<path d="M178.209 38.4089L176.561 37.2795C175.87 36.8066 175.598 35.9198 175.905 35.1413L187.157 6.54337C187.556 5.52855 188.761 5.10118 189.71 5.63748L201.359 12.2155C202.365 12.7839 202.58 14.1414 201.799 14.9929L180.546 38.1421C179.942 38.8002 178.946 38.9139 178.209 38.4089Z" fill="#F8F8F8" stroke="#F8F8F8" stroke-width="7"/>
<path d="M189.402 46.0057L189.413 45.486C189.429 44.6494 190.02 43.9351 190.84 43.7635L210.987 39.5416C212.054 39.318 213.073 40.0898 213.146 41.178L213.693 49.2884C213.771 50.4418 212.754 51.3669 211.614 51.181L190.909 47.8127C190.027 47.669 189.385 46.8989 189.402 46.0057Z" fill="#F8F8F8" stroke="#F8F8F8" stroke-width="4.92464"/>
</svg>
