<svg width="21" height="20" viewBox="0 0 21 20" fill="none" xmlns="http://www.w3.org/2000/svg">
<path d="M15.75 4H20.75V6H18.75V19C18.75 19.2652 18.6446 19.5196 18.4571 19.7071C18.2696 19.8946 18.0152 20 17.75 20H3.75C3.48478 20 3.23043 19.8946 3.04289 19.7071C2.85536 19.5196 2.75 19.2652 2.75 19V6H0.75V4H5.75V1C5.75 0.734784 5.85536 0.48043 6.04289 0.292893C6.23043 0.105357 6.48478 0 6.75 0H14.75C15.0152 0 15.2696 0.105357 15.4571 0.292893C15.6446 0.48043 15.75 0.734784 15.75 1V4ZM16.75 6H4.75V18H16.75V6ZM7.75 9H9.75V15H7.75V9ZM11.75 9H13.75V15H11.75V9ZM7.75 2V4H13.75V2H7.75Z" fill="#3C3C3C" fill-opacity="0.64"/>
</svg>
